<svg xmlns="http://www.w3.org/2000/svg" xmlns:xlink="http://www.w3.org/1999/xlink" viewBox="0 0 856.47 253.95"><defs><style>.cls-1{fill:#283676;}.cls-2{fill:url(#linear-gradient);}.cls-3{fill:#ee8322;}.cls-4{fill:#fff;}.cls-5{fill:#192350;}.cls-6{fill:url(#linear-gradient-2);}</style><linearGradient id="linear-gradient" x1="67.07" y1="206.08" x2="191.9" y2="24.02" gradientTransform="matrix(1, 0, 0, -1, 0, 243.19)" gradientUnits="userSpaceOnUse"><stop offset="0" stop-color="#f6c137"/><stop offset="0.56" stop-color="#fff356"/><stop offset="1" stop-color="#f4ba18"/></linearGradient><linearGradient id="linear-gradient-2" x1="145.4" y1="262.85" x2="270.23" y2="80.8" xlink:href="#linear-gradient"/></defs><title>Asset 1</title><g id="Layer_2" data-name="Layer 2"><g id="Layer_1-2" data-name="Layer 1"><path class="cls-1" d="M388.55,26.61H407q12.63,0,18.34,3.6c3.81,2.39,5.71,6.21,5.71,11.43a14.42,14.42,0,0,1-2.5,8.73,10,10,0,0,1-6.64,4.11v.4q5.64,1.26,8.14,4.71t2.5,9.19q0,8.11-5.87,12.67T410.77,86H388.55V26.61Zm12.59,23.52h7.31q5.13,0,7.42-1.58t2.29-5.24a5.24,5.24,0,0,0-2.5-4.9c-1.66-1-4.3-1.48-7.9-1.48h-6.62v13.2Zm0,10V75.6h8.21c3.46,0,6-.67,7.67-2s2.48-3.36,2.48-6.1q0-7.38-10.56-7.39Z"/><path class="cls-1" d="M462.92,86.81q-9.87,0-15.57-6t-5.71-16.7q0-10.75,5.3-17.1t14.24-6.33q8.37,0,13.24,5.5t4.87,14.52V65H448.63q.19,7.83,4,11.9t10.58,4.06a35.72,35.72,0,0,0,14.21-3v6a35.69,35.69,0,0,1-6.76,2.22A38.54,38.54,0,0,1,462.92,86.81Zm-1.83-40.5a11,11,0,0,0-8.55,3.5c-2.12,2.32-3.37,5.55-3.75,9.66h23.27q0-6.37-2.84-9.77C467.32,47.44,464.62,46.31,461.09,46.31Z"/><path class="cls-1" d="M511.1,40.67a26.81,26.81,0,0,1,5.32.48l-.94,6.26a22.74,22.74,0,0,0-4.87-.61,11.85,11.85,0,0,0-9.24,4.39,16,16,0,0,0-3.84,10.92V86h-6.74V41.48h5.56l.77,8.24h.33a19.59,19.59,0,0,1,6-6.7A13.45,13.45,0,0,1,511.1,40.67Z"/><path class="cls-1" d="M531.41,63.21a77,77,0,0,1,5.32-6.5L551.1,41.48h8l-18,19L560.37,86H552.2L536.48,65l-5.07,4.38V86h-6.67V22.79h6.67V56.3c0,1.49-.11,3.8-.33,6.91Z"/><path class="cls-1" d="M587.22,86.81q-9.87,0-15.58-6t-5.71-16.7q0-10.75,5.3-17.1t14.24-6.33q8.37,0,13.24,5.5t4.88,14.52V65H572.92q.2,7.83,4,11.9t10.58,4.06a35.8,35.8,0,0,0,14.22-3v6a36,36,0,0,1-6.77,2.22A38.43,38.43,0,0,1,587.22,86.81Zm-1.83-40.5a11,11,0,0,0-8.55,3.5c-2.13,2.32-3.38,5.55-3.76,9.66h23.27q0-6.37-2.84-9.77T585.39,46.31Z"/><path class="cls-1" d="M621.82,86h-6.74V22.79h6.74Z"/><path class="cls-1" d="M654.92,86.81q-9.87,0-15.57-6t-5.71-16.7q0-10.75,5.3-17.1t14.24-6.33q8.37,0,13.24,5.5t4.87,14.52V65H640.63q.2,7.83,4,11.9t10.58,4.06a35.8,35.8,0,0,0,14.22-3v6a36,36,0,0,1-6.77,2.22A38.47,38.47,0,0,1,654.92,86.81Zm-1.82-40.5a11,11,0,0,0-8.55,3.5c-2.13,2.32-3.38,5.55-3.76,9.66h23.27q0-6.37-2.84-9.77T653.1,46.31Z"/><path class="cls-1" d="M675.72,41.48H683l9.75,25.39a96.69,96.69,0,0,1,4,12.55H697c.36-1.38,1.09-3.75,2.22-7.09s4.8-13.63,11-30.85h7.23L698.34,92.17q-2.83,7.52-6.64,10.66a14.11,14.11,0,0,1-9.32,3.15,27.08,27.08,0,0,1-6.09-.69v-5.4a23.81,23.81,0,0,0,5,.48q6.94,0,9.91-7.79l2.48-6.34Z"/><path class="cls-1" d="M424.9,161.12,420.6,147H399l-4.31,14.13H381.08l21-59.62h15.39l21,59.62Zm-7.31-24.69q-6-19.22-6.72-21.73c-.5-1.68-.86-3-1.08-4q-1.34,5.19-7.67,25.71Z"/><path class="cls-1" d="M465.93,115.79a26.7,26.7,0,0,1,5.32.49l-.94,6.26a22.67,22.67,0,0,0-4.87-.61,11.87,11.87,0,0,0-9.24,4.38,16,16,0,0,0-3.84,10.93v23.88h-6.74V116.61h5.56l.77,8.24h.33a19.59,19.59,0,0,1,6-6.7A13.46,13.46,0,0,1,465.93,115.79Z"/><path class="cls-1" d="M497.37,161.94q-9.67,0-15-5.95t-5.3-16.84q0-11.18,5.38-17.26t15.33-6.1a30.47,30.47,0,0,1,6.42.69,21.27,21.27,0,0,1,5,1.63l-2.07,5.73a32.15,32.15,0,0,0-4.88-1.49,21.88,21.88,0,0,0-4.67-.59q-13.56,0-13.56,17.31,0,8.2,3.31,12.59t9.81,4.39a29.94,29.94,0,0,0,11.41-2.4v6A24.37,24.37,0,0,1,497.37,161.94Z"/><path class="cls-1" d="M549.64,161.12V132.33c0-3.63-.82-6.34-2.48-8.13s-4.23-2.68-7.75-2.68q-7,0-10.26,3.82t-3.23,12.51v23.27h-6.74V97.92h6.74v19.13a43,43,0,0,1-.32,5.73h.4a13.77,13.77,0,0,1,5.67-5.06,18.43,18.43,0,0,1,8.39-1.85q8.16,0,12.24,3.88t4.08,12.33v29Z"/><path class="cls-1" d="M569.67,104.54a4.48,4.48,0,0,1,1.14-3.39,4.19,4.19,0,0,1,5.64,0,4.39,4.39,0,0,1,1.18,3.37,4.43,4.43,0,0,1-1.18,3.39,3.9,3.9,0,0,1-2.8,1.12,3.85,3.85,0,0,1-2.84-1.12A4.54,4.54,0,0,1,569.67,104.54ZM577,161.12h-6.74V116.61H577Z"/><path class="cls-1" d="M605.65,156.37a22.79,22.79,0,0,0,3.46-.26,23.05,23.05,0,0,0,2.64-.55v5.16a12.43,12.43,0,0,1-3.23.87,24.19,24.19,0,0,1-3.84.34q-12.91,0-12.92-13.6V121.85h-6.37V118.6l6.37-2.81,2.85-9.5h3.9V116.6h12.91v5.24H598.51V148a9.05,9.05,0,0,0,1.9,6.18A6.67,6.67,0,0,0,605.65,156.37Z"/><path class="cls-1" d="M639.45,161.94q-9.87,0-15.58-6t-5.7-16.69q0-10.75,5.3-17.1t14.23-6.34q8.37,0,13.25,5.51t4.87,14.52v4.26H625.15q.21,7.84,4,11.9t10.58,4.07a35.9,35.9,0,0,0,14.22-3v6a35.93,35.93,0,0,1-6.76,2.22A38.54,38.54,0,0,1,639.45,161.94Zm-1.83-40.5a11,11,0,0,0-8.55,3.49q-3.18,3.5-3.76,9.67h23.28q0-6.37-2.85-9.77T637.62,121.44Z"/><path class="cls-1" d="M685.1,161.94q-9.66,0-15-5.95t-5.31-16.84q0-11.18,5.39-17.26t15.33-6.1a30.47,30.47,0,0,1,6.42.69,21,21,0,0,1,5,1.63l-2.07,5.73a32,32,0,0,0-4.87-1.49,22,22,0,0,0-4.67-.59q-13.57,0-13.57,17.31,0,8.2,3.31,12.59t9.81,4.39a30,30,0,0,0,11.42-2.4v6A24.39,24.39,0,0,1,685.1,161.94Z"/><path class="cls-1" d="M721.29,156.37a22.79,22.79,0,0,0,3.46-.26,23.05,23.05,0,0,0,2.64-.55v5.16a12.43,12.43,0,0,1-3.23.87,24.19,24.19,0,0,1-3.84.34q-12.92,0-12.92-13.6V121.85H701V118.6l6.37-2.81,2.85-9.5h3.9V116.6h12.91v5.24H714.15V148a9.05,9.05,0,0,0,1.9,6.18A6.67,6.67,0,0,0,721.29,156.37Z"/><path class="cls-1" d="M742.62,116.61v28.88c0,3.63.82,6.33,2.48,8.12s4.23,2.68,7.76,2.68q7,0,10.21-3.82T766.3,140V116.61H773v44.52h-5.56l-1-6h-.36a13.38,13.38,0,0,1-5.75,5,19.39,19.39,0,0,1-8.39,1.75q-8.12,0-12.16-3.86t-4-12.35V116.61Z"/><path class="cls-1" d="M807.65,115.79a26.7,26.7,0,0,1,5.32.49l-.94,6.26a22.67,22.67,0,0,0-4.87-.61,11.87,11.87,0,0,0-9.24,4.38,16,16,0,0,0-3.84,10.93v23.88h-6.74V116.61h5.56l.77,8.24H794a19.59,19.59,0,0,1,6-6.7A13.46,13.46,0,0,1,807.65,115.79Z"/><path class="cls-1" d="M840.1,161.94q-9.87,0-15.57-6t-5.71-16.69q0-10.75,5.3-17.1t14.24-6.34q8.35,0,13.24,5.51t4.87,14.52v4.26H825.8q.21,7.84,4,11.9t10.58,4.07a35.89,35.89,0,0,0,14.21-3v6a35.93,35.93,0,0,1-6.76,2.22A38.54,38.54,0,0,1,840.1,161.94Zm-1.83-40.5a11,11,0,0,0-8.55,3.49q-3.18,3.5-3.75,9.67h23.27q0-6.37-2.84-9.77C844.5,122.57,841.8,121.44,838.27,121.44Z"/><path class="cls-1" d="M401.14,213.47v22.78H388.55V176.87h17.3q12.11,0,17.92,4.41t5.81,13.38a15.78,15.78,0,0,1-2.89,9.32,19.12,19.12,0,0,1-8.16,6.4q13.39,20,17.46,25.87H422l-14.18-22.79h-6.7Zm0-10.24h4.06q6,0,8.82-2c1.89-1.33,2.84-3.41,2.84-6.26s-1-4.81-2.9-6-4.94-1.78-9-1.78h-3.82v16Z"/><path class="cls-1" d="M462,237.07q-9.87,0-15.58-6t-5.71-16.69q0-10.77,5.31-17.1t14.23-6.34q8.37,0,13.24,5.51T478.32,211v4.26H447.65q.21,7.84,4,11.9t10.58,4.07a35.94,35.94,0,0,0,14.22-3v6a35.93,35.93,0,0,1-6.76,2.22A38.61,38.61,0,0,1,462,237.07Zm-1.83-40.5a11,11,0,0,0-8.55,3.49q-3.18,3.49-3.76,9.67h23.28q0-6.37-2.85-9.77T460.12,196.57Z"/><path class="cls-1" d="M518.53,224.11a11.13,11.13,0,0,1-4.63,9.58q-4.63,3.38-13,3.38-8.85,0-13.81-2.81V228a34.08,34.08,0,0,0,6.89,2.56,28.84,28.84,0,0,0,7.08.93q5.28,0,8.13-1.69a5.8,5.8,0,0,0,.59-9.58q-2.26-1.84-8.8-4.37a47.34,47.34,0,0,1-8.83-4,12,12,0,0,1-3.9-3.92,10.25,10.25,0,0,1-1.28-5.24,10,10,0,0,1,4.43-8.59q4.43-3.15,12.14-3.15a35.55,35.55,0,0,1,14.06,2.93l-2.4,5.48a32.3,32.3,0,0,0-12.14-2.76q-4.8,0-7.23,1.5a4.63,4.63,0,0,0-2.44,4.14,5,5,0,0,0,.91,3,9,9,0,0,0,2.95,2.4,65.72,65.72,0,0,0,7.8,3.29q7.92,2.88,10.7,5.81A10.26,10.26,0,0,1,518.53,224.11Z"/><path class="cls-1" d="M548.3,237.07q-9.87,0-15.58-6T527,214.36q0-10.77,5.3-17.1t14.23-6.34q8.37,0,13.25,5.51T564.67,211v4.26H534q.21,7.84,4,11.9t10.58,4.07a35.89,35.89,0,0,0,14.21-3v6A35.93,35.93,0,0,1,556,236.4,38.54,38.54,0,0,1,548.3,237.07Zm-1.83-40.5a11,11,0,0,0-8.55,3.49q-3.18,3.49-3.75,9.67h23.27q0-6.37-2.84-9.77T546.47,196.57Z"/><path class="cls-1" d="M603.54,236.25l-1.34-6.33h-.32a18.77,18.77,0,0,1-6.64,5.66,20.26,20.26,0,0,1-8.27,1.48q-6.62,0-10.38-3.41t-3.76-9.71q0-13.47,21.57-14.13l7.56-.24V206.8q0-5.24-2.26-7.73t-7.21-2.5q-5.57,0-12.59,3.41l-2.07-5.16A31.89,31.89,0,0,1,585,192a31.06,31.06,0,0,1,7.86-1q8,0,11.8,3.54t3.84,11.33v30.38Zm-15.23-4.75q6.3,0,9.89-3.45t3.6-9.67v-4l-6.75.28q-8,.29-11.59,2.5A7.54,7.54,0,0,0,579.9,224a6.93,6.93,0,0,0,2.22,5.56A9.19,9.19,0,0,0,588.31,231.5Z"/><path class="cls-1" d="M642.74,190.92a26,26,0,0,1,5.32.49l-.93,6.26a22.83,22.83,0,0,0-4.88-.61,11.87,11.87,0,0,0-9.24,4.38,16,16,0,0,0-3.84,10.93v23.88h-6.74V191.74H628l.78,8.24h.32a19.5,19.5,0,0,1,6-6.7A13.46,13.46,0,0,1,642.74,190.92Z"/><path class="cls-1" d="M674.18,237.07q-9.67,0-15-6t-5.3-16.83q0-11.17,5.38-17.26t15.33-6.1a30.47,30.47,0,0,1,6.42.69,20.82,20.82,0,0,1,5,1.63L684,199a32.15,32.15,0,0,0-4.88-1.49,21.88,21.88,0,0,0-4.67-.59q-13.56,0-13.56,17.31,0,8.2,3.31,12.59t9.81,4.39a29.94,29.94,0,0,0,11.41-2.4v6A24.37,24.37,0,0,1,674.18,237.07Z"/><path class="cls-1" d="M726.45,236.25v-28.8q0-5.43-2.47-8.12c-1.66-1.79-4.24-2.68-7.76-2.68q-7,0-10.26,3.82T702.73,213v23.27H696v-63.2h6.74v19.13a43,43,0,0,1-.32,5.73h.4a13.77,13.77,0,0,1,5.67-5.06,18.43,18.43,0,0,1,8.39-1.85q8.16,0,12.24,3.88t4.09,12.33v29Z"/><rect class="cls-1" x="313.08" y="25.74" width="8" height="212"/><circle class="cls-2" cx="126.78" cy="124.21" r="121.85"/><path class="cls-3" d="M140.4,108.21q-.27,1.47-.51,2.94h85.25v-2.94Z"/><path class="cls-3" d="M220.13,50.21c-1-1.12-1.94-2.23-2.95-3.31V206.31c1-1.08,2-2.19,2.95-3.31Z"/><path class="cls-3" d="M183.34,21.45V231.77c1-.5,2-1,2.94-1.53V23C185.31,22.45,184.33,21.94,183.34,21.45Z"/><path class="cls-3" d="M149.49,10.56V242.65q1.47-.24,2.94-.51V11.07Z"/><path class="cls-3" d="M81.79,233.43c1,.45,1.95.89,2.94,1.31V174H81.79Z"/><path class="cls-3" d="M84.73,18.47c-1,.43-2,.86-2.94,1.31V67.37h2.94Z"/><path class="cls-3" d="M115.64,168.5v74.65c1,.13,2,.24,2.94.34v-75Z"/><path class="cls-3" d="M118.58,99.64V9.72c-1,.1-2,.21-2.94.34V99.64Z"/><path class="cls-3" d="M57.64,40.51q-1.7,1.44-3.31,3H213.74c-1.08-1-2.19-2-3.31-3Z"/><path class="cls-3" d="M50.73,212.7H217.34c1-1,1.9-1.95,2.82-2.95H47.91C48.83,210.75,49.77,211.74,50.73,212.7Z"/><path class="cls-3" d="M68.66,77.3H239.19c-.49-1-1-2-1.52-2.94H70.18C69.66,75.33,69.15,76.32,68.66,77.3Z"/><path class="cls-3" d="M27.21,178.85H240.86c.45-1,.88-1.95,1.31-2.94H25.9C26.32,176.9,26.76,177.88,27.21,178.85Z"/><path class="cls-3" d="M150.12,145H250.58c.13-1,.24-2,.34-2.94H149.78C149.88,143,150,144,150.12,145Z"/><path class="cls-3" d="M113.7,169.24c21.31-6.86,52.38-41.54,52.38-41.54l13,2.53S130,209.34,51.56,181.16l-1.8-10.11S84.2,178.74,113.7,169.24Z"/><path class="cls-4" d="M70.75,84.86s5-11.92,15.61-6.48c9.6,4.93,3.15,17.48-4.87,19.48l62.75,18.91,6-3.15L98.4,93.85s1.43-8.88-.58-15.18-16-12-20.91-9.17S68.6,80.17,70.75,84.86Z"/><path class="cls-4" d="M15.08,99.52S49.4-9.93,181.61,22.22c0,0-50.94-33.24-108.37-1.45S15.08,99.52,15.08,99.52Z"/><polygon class="cls-3" points="207.12 177.21 214.61 180.65 219.41 198.42 212.69 203.71 207.12 177.21"/><polygon class="cls-3" points="175.11 194.19 186.08 194.5 160.17 218.28 159.72 238.28 154.08 239.31 153.77 210.66 175.11 194.19"/><path class="cls-5" d="M238.42,101.6l.18.82Z"/><path class="cls-5" d="M237.37,97.35c.06.24.13.48.2.72C237.5,97.83,237.43,97.59,237.37,97.35Z"/><path class="cls-5" d="M241.16,131.28c.08-1.51.16-3.05.22-4.3h-.13C241.25,128.42,241.22,129.85,241.16,131.28Z"/><path class="cls-1" d="M253,111.22H240.16c.11.81.22,1.62.32,2.44,0,.31.07.63.11,1,.13,1.23.25,2.47.34,3.72l0,.45c.08,1.12.14,2.24.19,3.37l0,1c0,1.27.08,2.55.08,3.83h.12c-.06,1.25-.14,2.79-.22,4.3,0,.95-.08,1.9-.14,2.85a113.94,113.94,0,1,1-4.47-39.69c.28,1,.56,1.93.82,2.91.06.24.13.48.2.72.3,1.17.59,2.34.85,3.53l.18.81c.22,1,.42,2,.61,3,0,.28.11.57.16.86.12.64.22,1.29.33,1.93h12.86A127.12,127.12,0,1,0,254,127,128,128,0,0,0,253,111.22Z"/><path class="cls-5" d="M240.93,118.33l0,.45Z"/><path class="cls-5" d="M240.48,113.66c0,.31.07.63.11,1C240.55,114.29,240.51,114,240.48,113.66Z"/><path class="cls-5" d="M241.14,122.15c0,.33,0,.67,0,1C241.17,122.82,241.16,122.48,241.14,122.15Z"/><path class="cls-5" d="M239.21,105.38c0,.28.11.57.16.86C239.32,106,239.26,105.66,239.21,105.38Z"/><path class="cls-1" d="M70.75,84.86h0a12.33,12.33,0,0,1,6.41-10.79,12.44,12.44,0,0,1,5.91-1.5A12.33,12.33,0,0,1,93.86,79a12.3,12.3,0,0,1-.36,12.39l-2.59,4.17L167.85,123l1.33-3.74-3.36-2.1,0,0a154.49,154.49,0,0,1-24.1,28.11,115.91,115.91,0,0,1-26.17,18.4,73.16,73.16,0,0,1-32.74,8.17c-10.85,0-22.45-2.69-34.79-9.47l-2.87-1.58L43,163.33l1,.83-1-.84h0l1,.83-1-.84a21.53,21.53,0,0,1-3.69,3.25,18.35,18.35,0,0,1-3.77,2,12,12,0,0,1-4.32.85,11.3,11.3,0,0,1-6.08-1.86,12.7,12.7,0,0,1-4.73-4.75,10.24,10.24,0,0,1-1.2-4.94,14.16,14.16,0,0,1,1-5.1,14.52,14.52,0,0,1,.91-1.92,5.66,5.66,0,0,1,.71-1l2.75-3.05-3.14-2.65-.95,1.13,1-1.11,0,0-.95,1.13,1-1.11A27.1,27.1,0,0,1,16.25,137c-2.57-4.83-5.14-12.17-5.15-22.55,0-.3,0-.6,0-.91l-7.93-.12c0,.35,0,.69,0,1,0,12.09,3.15,21,6.39,26.85a33,33,0,0,0,6.81,8.93l2.55-3L16,144.55a13.79,13.79,0,0,0-1.68,2.36,22.49,22.49,0,0,0-3,11,18.3,18.3,0,0,0,2.15,8.7A20.75,20.75,0,0,0,21,174.35a19.36,19.36,0,0,0,10.27,3.05,20.16,20.16,0,0,0,7.38-1.46,27.81,27.81,0,0,0,7.58-4.66,26.67,26.67,0,0,0,2.91-2.87l-3-2.54-1.91,3.48c13.41,7.38,26.43,10.46,38.61,10.45,13.49,0,25.88-3.74,36.8-9.26,16.38-8.29,29.53-20.55,38.65-30.73a147.87,147.87,0,0,0,14.3-18.44l2.62-4.18L98.21,89.71l-1.33,3.74,3.37,2.09A20.24,20.24,0,1,0,62.81,84.85v.07Z"/><circle class="cls-1" cx="109.13" cy="114.65" r="4.79"/><path class="cls-1" d="M104.64,131.68a4.79,4.79,0,1,1-6.59,1.55A4.78,4.78,0,0,1,104.64,131.68Z"/><path class="cls-1" d="M157.6,114.33a12.82,12.82,0,1,1-17.66,4.13A12.82,12.82,0,0,1,157.6,114.33Z"/><path class="cls-1" d="M113.81,188.88a124.71,124.71,0,0,0,36.76,5.58c21.07,0,34.81-5.58,34.81-5.58L155.24,216.8v27.63h-8.79V216.8Z"/><polygon class="cls-1" points="8.83 135.14 16.6 146.59 13.3 153 10 148.92 8.83 135.14"/><path class="cls-1" d="M48.94,165.79l10.52,62.66S34.4,209.9,24.88,188.85s-9-26.57-9-26.57,6,10.53,18.54,9.53S48.94,165.79,48.94,165.79Z"/><polyline class="cls-1" points="104.01 244.16 101.01 207.07 93.1 207.72 96.11 244.81"/><polyline class="cls-1" points="216.64 209.79 207.12 177.21 199.5 179.44 209.02 212.02"/><path class="cls-1" d="M247.18,123.9a15.8,15.8,0,0,1-5.74,1.93c-.1,2-.28,5.42-.4,8a22.68,22.68,0,0,0,13-5.22,16.15,16.15,0,0,0,5.49-12.31,17.26,17.26,0,0,0-.23-2.93,28.28,28.28,0,0,0-1.51-6,15.72,15.72,0,0,0-2.39-4.19A14.49,14.49,0,0,0,249,98.76a28,28,0,0,0-9.51-1.39c-.67,0-1.36,0-2.07,0q1,3.9,1.8,7.9h.27a22.08,22.08,0,0,1,6.3.75C246.86,106.39,249,122.8,247.18,123.9Z"/><polygon class="cls-1" points="64.56 228.19 68.71 221.37 71.67 232.94 64.56 228.19"/><polygon class="cls-1" points="72.86 232.35 77.01 225.53 79.97 237.09 72.86 232.35"/><polygon class="cls-1" points="81.75 236.5 85.9 229.68 88.87 241.24 81.75 236.5"/><polygon class="cls-1" points="107.55 243.02 111.7 236.2 114.66 247.76 107.55 243.02"/><polygon class="cls-1" points="116.74 243.91 120.89 237.09 123.85 248.65 116.74 243.91"/><polygon class="cls-1" points="126.52 245.09 130.67 238.28 133.63 249.84 126.52 245.09"/><polygon class="cls-1" points="159.72 238.28 163.88 231.46 166.84 243.02 159.72 238.28"/><polygon class="cls-1" points="170.4 235.02 174.55 228.19 177.51 239.76 170.4 235.02"/><polygon class="cls-1" points="180.48 229.97 184.63 223.16 187.59 234.72 180.48 229.97"/><polygon class="cls-3" points="56.11 179.94 61.8 220.76 57.5 217.84 51.11 178.27 56.11 179.94"/><polygon class="cls-3" points="101.01 207.07 106.52 214.31 108.05 239.31 103.78 238.7 101.01 207.07"/><ellipse class="cls-6" cx="238.25" cy="115.76" rx="12.04" ry="13.5"/><path class="cls-3" d="M248.23,108.21H225.14v2.94h24.42A14.22,14.22,0,0,0,248.23,108.21Z"/></g></g></svg>